<?xml version="1.0" encoding="utf-8"?>
<!-- Generator: Adobe Illustrator 16.0.0, SVG Export Plug-In . SVG Version: 6.00 Build 0)  -->
<!DOCTYPE svg PUBLIC "-//W3C//DTD SVG 1.1//EN" "http://www.w3.org/Graphics/SVG/1.1/DTD/svg11.dtd">
<svg version="1.1" id="Layer_1" xmlns="http://www.w3.org/2000/svg" xmlns:xlink="http://www.w3.org/1999/xlink" x="0px" y="0px"
	 width="41.014px" height="41.014px" viewBox="0 0 41.014 41.014" enable-background="new 0 0 41.014 41.014" xml:space="preserve">
<g>
	<polygon fill="#6D6E70" points="9.742,16.709 9.63,17.187 17.62,19.061 14.974,21.118 29.554,21.118 27.323,17.075 20.174,17.075 
		18.994,17.992 9.94,15.868 10.042,15.43 8.81,15.141 8.296,17.337 9.527,17.627 	"/>
	<path fill="#6D6E70" d="M30.007,21.986H11.378c-1.444,0-2.614,1.17-2.614,2.613c0,1.444,1.17,2.615,2.614,2.615h18.629
		c1.443,0,2.613-1.171,2.613-2.615C32.62,23.156,31.45,21.986,30.007,21.986z M11.721,26.279c-0.928,0-1.68-0.752-1.68-1.68
		c0-0.926,0.752-1.679,1.68-1.679c0.927,0,1.679,0.753,1.679,1.679C13.4,25.527,12.649,26.279,11.721,26.279z M16.244,26.279
		c-0.927,0-1.679-0.752-1.679-1.68c0-0.926,0.752-1.679,1.679-1.679c0.927,0,1.679,0.753,1.679,1.679
		C17.923,25.527,17.171,26.279,16.244,26.279z M20.766,26.279c-0.927,0-1.679-0.752-1.679-1.68c0-0.926,0.751-1.679,1.679-1.679
		c0.928,0,1.68,0.753,1.68,1.679C22.447,25.527,21.695,26.279,20.766,26.279z M25.289,26.279c-0.927,0-1.679-0.752-1.679-1.68
		c0-0.926,0.752-1.679,1.679-1.679c0.928,0,1.679,0.753,1.679,1.679C26.968,25.527,26.217,26.279,25.289,26.279z M29.812,26.279
		c-0.927,0-1.679-0.752-1.679-1.68c0-0.926,0.752-1.679,1.679-1.679c0.928,0,1.68,0.753,1.68,1.679
		C31.491,25.527,30.74,26.279,29.812,26.279z"/>
</g>
</svg>
