<?xml version="1.0" encoding="utf-8"?>
<!-- Generator: Adobe Illustrator 16.0.0, SVG Export Plug-In . SVG Version: 6.00 Build 0)  -->
<!DOCTYPE svg PUBLIC "-//W3C//DTD SVG 1.1//EN" "http://www.w3.org/Graphics/SVG/1.1/DTD/svg11.dtd">
<svg version="1.1" id="Layer_1" xmlns="http://www.w3.org/2000/svg" xmlns:xlink="http://www.w3.org/1999/xlink" x="0px" y="0px"
	 width="41.014px" height="41.014px" viewBox="0 0 41.014 41.014" enable-background="new 0 0 41.014 41.014" xml:space="preserve">
<g>
	<path fill="#6D6E70" d="M27.128,23.573c-1.434,0-2.596,1.162-2.596,2.597c0,1.434,1.162,2.597,2.596,2.597s2.596-1.163,2.596-2.597
		C29.724,24.736,28.562,23.573,27.128,23.573z M27.066,27.603c-0.791,0-1.432-0.642-1.432-1.433c0-0.792,0.641-1.432,1.432-1.432
		s1.433,0.64,1.433,1.432C28.498,26.961,27.857,27.603,27.066,27.603z"/>
	<path fill="#6D6E70" d="M20.982,23.573c-1.434,0-2.596,1.162-2.596,2.597c0,1.434,1.162,2.597,2.596,2.597s2.596-1.163,2.596-2.597
		C23.578,24.736,22.416,23.573,20.982,23.573z M20.92,27.603c-0.791,0-1.432-0.642-1.432-1.433c0-0.792,0.641-1.432,1.432-1.432
		c0.791,0,1.433,0.64,1.433,1.432C22.353,26.961,21.71,27.603,20.92,27.603z"/>
	<path fill="#6D6E70" d="M9.137,21.414l1.771,5.579h0.859c-0.069-0.265-0.118-0.537-0.118-0.823c0-1.784,1.447-3.231,3.231-3.231
		c1.425,0,2.622,0.93,3.051,2.21c0.429-1.28,1.625-2.21,3.051-2.21c1.452,0,2.665,0.964,3.073,2.282
		c0.407-1.318,1.621-2.282,3.072-2.282c1.361,0,2.52,0.844,2.996,2.033L31.38,24.9l0.397-3.485H9.137z"/>
	<path fill="#6D6E70" d="M14.881,23.573c-1.434,0-2.596,1.162-2.596,2.597c0,1.434,1.162,2.597,2.596,2.597s2.597-1.163,2.597-2.597
		C17.477,24.736,16.315,23.573,14.881,23.573z M14.818,27.603c-0.791,0-1.432-0.642-1.432-1.433c0-0.792,0.641-1.432,1.432-1.432
		s1.433,0.64,1.433,1.432C16.251,26.961,15.609,27.603,14.818,27.603z"/>
	<path fill="#6D6E70" d="M30.911,17.954H12.867l-2.635,3.46h21.545L30.911,17.954z M15.636,20.498h-3.351l0.938-1.309h2.414V20.498z
		 M19.925,20.498h-2.414V19.19h2.414V20.498z M24.214,20.498H21.8V19.19h2.414V20.498z"/>
	<polygon fill="#6D6E70" points="26.247,17.038 22.864,17.038 22.247,17.954 26.822,17.954 	"/>
	<rect x="13.031" y="16.751" fill="#6D6E70" width="11.632" height="0.745"/>
	<rect x="12.21" y="16.592" fill="#6D6E70" width="1.064" height="1.064"/>
	<polygon fill="#6D6E70" points="23.82,15.06 23.82,16.273 25.257,16.273 25.673,17.038 22.991,17.124 23.314,15.283 	"/>
	<path fill="#6D6E70" d="M27.333,17.954l0.829-1.862c0,0,0.352-0.374,0.415,0c0.064,0.373,0.128,1.862,0.128,1.862H27.333z"/>
</g>
</svg>
