<?xml version="1.0" encoding="utf-8"?>
<!-- Generator: Adobe Illustrator 16.0.0, SVG Export Plug-In . SVG Version: 6.00 Build 0)  -->
<!DOCTYPE svg PUBLIC "-//W3C//DTD SVG 1.1//EN" "http://www.w3.org/Graphics/SVG/1.1/DTD/svg11.dtd">
<svg version="1.1" id="Layer_1" xmlns="http://www.w3.org/2000/svg" xmlns:xlink="http://www.w3.org/1999/xlink" x="0px" y="0px"
	 width="41.014px" height="41.014px" viewBox="0 0 41.014 41.014" enable-background="new 0 0 41.014 41.014" xml:space="preserve">
<g>
	<g>
		<polygon fill="#6D6E70" points="16.811,16.703 16.735,17.03 22.192,18.31 20.385,19.715 30.342,19.715 28.82,16.952 
			23.935,16.952 23.13,17.579 16.946,16.129 17.015,15.829 16.175,15.632 15.823,17.132 16.663,17.33 		"/>
		<path fill="#6D6E70" d="M30.652,20.307H17.928c-0.986,0-1.785,0.8-1.785,1.785c0,0.986,0.799,1.785,1.785,1.785h12.724
			c0.986,0,1.785-0.799,1.785-1.785C32.437,21.107,31.638,20.307,30.652,20.307z M18.162,23.24c-0.633,0-1.147-0.516-1.147-1.147
			s0.514-1.146,1.147-1.146c0.634,0,1.147,0.515,1.147,1.146S18.796,23.24,18.162,23.24z M21.251,23.24
			c-0.632,0-1.146-0.516-1.146-1.147s0.514-1.146,1.146-1.146c0.634,0,1.146,0.515,1.146,1.146S21.885,23.24,21.251,23.24z
			 M24.341,23.24c-0.634,0-1.146-0.516-1.146-1.147s0.513-1.146,1.146-1.146c0.633,0,1.146,0.515,1.146,1.146
			S24.974,23.24,24.341,23.24z M27.429,23.24c-0.633,0-1.146-0.516-1.146-1.147s0.514-1.146,1.146-1.146
			c0.635,0,1.146,0.515,1.146,1.146S28.064,23.24,27.429,23.24z M30.519,23.24c-0.634,0-1.147-0.516-1.147-1.147
			s0.514-1.146,1.147-1.146c0.633,0,1.146,0.515,1.146,1.146S31.152,23.24,30.519,23.24z"/>
	</g>
	<path fill="#6D6E70" d="M9.134,18.302c-0.138,0-0.25-0.112-0.25-0.249l0,0c0-0.139,0.112-0.251,0.25-0.251h0.502
		c0.138,0,0.25,0.112,0.25,0.251l0,0c0,0.137-0.112,0.249-0.25,0.249H9.134z"/>
	<path fill="#6D6E70" d="M33.263,17.993l-0.529,6.15H16.054l-0.546-0.952v-4.626H7.973v0.662h0.25l0.176,2.093H8.15l0.117,2.37
		l1.88,2.365h1.221c0.046,0.829,0.727,1.488,1.567,1.488c0.841,0,1.521-0.659,1.567-1.488h1.005v0.264h0.789
		c0.161,0.701,0.784,1.225,1.533,1.225c0.75,0,1.374-0.523,1.534-1.225h6.116v-0.954h0.664c-0.078,0.186-0.121,0.39-0.121,0.604
		c0,0.87,0.705,1.575,1.576,1.575s1.576-0.705,1.576-1.575c0-0.214-0.044-0.418-0.121-0.604h0.407
		c-0.077,0.186-0.12,0.39-0.12,0.604c0,0.87,0.705,1.575,1.575,1.575c0.871,0,1.577-0.705,1.577-1.575
		c0-0.214-0.044-0.418-0.121-0.604h1.249v-1.222V17.2L33.263,17.993z M11.954,20.615l-3.129,0.705l-0.235-2.093h3.364V20.615z
		 M12.936,26.866c-0.496,0-0.898-0.402-0.898-0.897c0-0.497,0.402-0.898,0.898-0.898c0.496,0,0.897,0.401,0.897,0.898
		C13.834,26.464,13.432,26.866,12.936,26.866z M14.808,20.615h-1.949v-1.388h1.949V20.615z M17.83,26.866
		c-0.496,0-0.898-0.402-0.898-0.897c0-0.497,0.402-0.898,0.898-0.898s0.898,0.401,0.898,0.898
		C18.728,26.464,18.326,26.866,17.83,26.866z M27.599,26.866c-0.496,0-0.898-0.402-0.898-0.897c0-0.497,0.402-0.898,0.898-0.898
		s0.897,0.401,0.897,0.898C28.496,26.464,28.095,26.866,27.599,26.866z M30.917,26.866c-0.496,0-0.898-0.402-0.898-0.897
		c0-0.497,0.402-0.898,0.898-0.898c0.495,0,0.897,0.401,0.897,0.898C31.815,26.464,31.412,26.866,30.917,26.866z"/>
</g>
</svg>
