<?xml version="1.0" encoding="utf-8"?>
<!-- Generator: Adobe Illustrator 16.0.0, SVG Export Plug-In . SVG Version: 6.00 Build 0)  -->
<!DOCTYPE svg PUBLIC "-//W3C//DTD SVG 1.1//EN" "http://www.w3.org/Graphics/SVG/1.1/DTD/svg11.dtd">
<svg version="1.1" id="Layer_1" xmlns="http://www.w3.org/2000/svg" xmlns:xlink="http://www.w3.org/1999/xlink" x="0px" y="0px"
	 width="41.014px" height="41.014px" viewBox="0 0 41.014 41.014" enable-background="new 0 0 41.014 41.014" xml:space="preserve">
<g>
	<path fill="#6D6E70" d="M32.556,24.676h-0.509v-8.688H15.782v8.688h-0.738v-3.727v-3.729H9.913l-0.629,3.729v3.727h-0.34v-2.493
		H8.462v3.622h0.482h1.735c-0.002,0.03-0.005,0.06-0.005,0.088c0,1.161,0.939,2.101,2.099,2.101c1.161,0,2.101-0.939,2.101-2.101
		c0-0.028-0.003-0.058-0.004-0.088h0.477v0.845h6.281v-0.845h0.741c-0.002,0.03-0.004,0.06-0.004,0.088
		c0,1.161,0.939,2.101,2.099,2.101c1.16,0,2.101-0.939,2.101-2.101c0-0.028-0.003-0.058-0.005-0.088h0.289
		c-0.001,0.03-0.004,0.06-0.004,0.088c0,1.161,0.94,2.101,2.1,2.101c1.16,0,2.101-0.939,2.101-2.101
		c0-0.028-0.004-0.058-0.005-0.088h1.516V24.676z M9.956,22.813V21.24l0.488-3.413h2.97v3.413h-1.396l-0.532,1.572H9.956z
		 M12.775,26.947c-0.58,0-1.051-0.473-1.051-1.054c0-0.578,0.471-1.049,1.051-1.049s1.05,0.471,1.05,1.049
		C13.824,26.474,13.355,26.947,12.775,26.947z M24.465,26.947c-0.581,0-1.052-0.473-1.052-1.054c0-0.578,0.471-1.049,1.052-1.049
		c0.578,0,1.049,0.471,1.049,1.049C25.514,26.474,25.043,26.947,24.465,26.947z M28.946,26.947c-0.581,0-1.052-0.473-1.052-1.054
		c0-0.578,0.471-1.049,1.052-1.049c0.578,0,1.049,0.471,1.049,1.049C29.994,26.474,29.524,26.947,28.946,26.947z"/>
	<rect x="9.14" y="22.716" fill="#6D6E70" width="0.145" height="1.791"/>
</g>
</svg>
