<?xml version="1.0" encoding="utf-8"?>
<!-- Generator: Adobe Illustrator 16.0.0, SVG Export Plug-In . SVG Version: 6.00 Build 0)  -->
<!DOCTYPE svg PUBLIC "-//W3C//DTD SVG 1.1//EN" "http://www.w3.org/Graphics/SVG/1.1/DTD/svg11.dtd">
<svg version="1.1" id="Layer_1" xmlns="http://www.w3.org/2000/svg" xmlns:xlink="http://www.w3.org/1999/xlink" x="0px" y="0px"
	 width="41.014px" height="41.014px" viewBox="0 0 41.014 41.014" enable-background="new 0 0 41.014 41.014" xml:space="preserve">
<g>
	<path fill="#6D6E70" d="M32.556,23.945h-0.508v-3.329H15.782v3.329h-0.738v-3.727v-3.729H9.913l-0.629,3.729v1.767v1.791v0.169
		h-0.34v-2.493H8.462v3.622h0.482h1.735c-0.002,0.03-0.005,0.06-0.005,0.088c0,1.161,0.939,2.101,2.099,2.101
		c1.161,0,2.101-0.939,2.101-2.101c0-0.028-0.003-0.058-0.004-0.088h0.477v0.845h6.281v-0.845h0.741
		c-0.001,0.03-0.004,0.06-0.004,0.088c0,1.161,0.939,2.101,2.1,2.101s2.101-0.939,2.101-2.101c0-0.028-0.004-0.058-0.006-0.088
		h0.291c-0.002,0.03-0.005,0.06-0.005,0.088c0,1.161,0.939,2.101,2.1,2.101s2.101-0.939,2.101-2.101
		c0-0.028-0.004-0.058-0.006-0.088h1.516V23.945z M9.956,22.081v-1.572l0.488-3.414h2.97v3.414h-1.396l-0.532,1.572H9.956z
		 M12.775,26.214c-0.58,0-1.051-0.472-1.051-1.053c0-0.578,0.471-1.049,1.051-1.049s1.05,0.471,1.05,1.049
		C13.824,25.742,13.355,26.214,12.775,26.214z M24.465,26.214c-0.58,0-1.052-0.472-1.052-1.053c0-0.578,0.472-1.049,1.052-1.049
		c0.578,0,1.049,0.471,1.049,1.049C25.514,25.742,25.043,26.214,24.465,26.214z M28.946,26.214c-0.581,0-1.052-0.472-1.052-1.053
		c0-0.578,0.471-1.049,1.052-1.049c0.578,0,1.049,0.471,1.049,1.049C29.994,25.742,29.524,26.214,28.946,26.214z"/>
</g>
</svg>
