<?xml version="1.0" encoding="utf-8"?>
<!-- Generator: Adobe Illustrator 16.0.0, SVG Export Plug-In . SVG Version: 6.00 Build 0)  -->
<!DOCTYPE svg PUBLIC "-//W3C//DTD SVG 1.1//EN" "http://www.w3.org/Graphics/SVG/1.1/DTD/svg11.dtd">
<svg version="1.1" id="Layer_1" xmlns="http://www.w3.org/2000/svg" xmlns:xlink="http://www.w3.org/1999/xlink" x="0px" y="0px"
	 width="41.014px" height="41.014px" viewBox="0 0 41.014 41.014" enable-background="new 0 0 41.014 41.014" xml:space="preserve">
<g>
	<path fill-rule="evenodd" clip-rule="evenodd" fill="#6D6E70" d="M31.931,16.361c-0.006-0.184-0.093-0.263-0.279-0.286
		c-0.129-0.018-0.26-0.028-0.389-0.037c-0.346-0.024-0.691-0.049-1.037-0.069c-0.027-0.003-0.06,0.002-0.084,0.016
		c-0.257,0.148-0.534,0.086-0.806,0.075c-0.167-0.006-0.335-0.034-0.502-0.023c-0.138,0.009-0.213-0.031-0.276-0.151
		c-0.032-0.066-0.108-0.141-0.174-0.15c-0.356-0.057-0.521-0.007-0.653,0.333c-0.024,0.063-0.063,0.124-0.07,0.189
		c-0.01,0.087-0.011,0.18,0.015,0.261c0.039,0.123,0.006,0.346-0.086,0.434c-0.126,0.116-0.097,0.403,0.059,0.49
		c0.121,0.068,0.148,0.154,0.123,0.288c-0.024,0.12-0.026,0.247-0.021,0.37c0.008,0.158-0.11,0.3-0.267,0.293
		c-0.105-0.005-0.211-0.033-0.315-0.025c-0.758,0.064-1.52,0.121-2.274,0.21c-0.425,0.051-0.558,0.044-0.528,0.613
		c0.004,0.071-0.037,0.173-0.092,0.211c-0.36,0.246-0.743,0.449-1.189,0.489c-0.153,0.014-0.31,0.002-0.462,0.021
		c-0.458,0.056-0.803-0.11-1.073-0.482c-0.184-0.252-0.397-0.483-0.615-0.708c-0.108-0.112-0.254-0.188-0.385-0.281
		c-0.115-0.081-0.144-0.182-0.117-0.326c0.127-0.723,0.247-1.447,0.37-2.17c0.003-0.015,0-0.029,0-0.044
		c-0.007-0.17-0.073-0.241-0.244-0.279c-0.423-0.097-0.839-0.233-1.268-0.287c-0.472-0.06-0.952-0.045-1.43-0.063
		c-0.05-0.002-0.102-0.007-0.167-0.012c0.023-0.171,0.035-0.324,0.066-0.474c0.027-0.137-0.103-0.144-0.161-0.206
		c-0.014-0.018-0.118,0.021-0.156,0.06c-0.215,0.211-0.345,0.462-0.343,0.771c0,0.028-0.009,0.075-0.029,0.084
		c-0.127,0.062-0.11,0.177-0.123,0.284c-0.005,0.042-0.038,0.092-0.072,0.115c-0.111,0.076-0.232,0.143-0.347,0.215
		c-0.006,0.003-0.006,0.018-0.009,0.031c0.008,0.008,0.016,0.02,0.024,0.028c0.12,0.104,0.107,0.132-0.029,0.214
		c-0.085,0.051-0.151,0.141-0.219,0.218c-0.042,0.05-0.066,0.117-0.109,0.166c-0.132,0.151-0.275,0.292-0.401,0.447
		c-0.12,0.147-0.233,0.165-0.395,0.053c-0.188-0.131-0.333-0.297-0.477-0.473c-0.129-0.156-0.172-0.295-0.099-0.473
		c0.295-0.707,0.74-1.29,1.396-1.703c0.047-0.03,0.063-0.111,0.093-0.168c-0.073-0.033-0.146-0.092-0.22-0.091
		c-0.07,0.002-0.138,0.063-0.203,0.104c-0.35,0.211-0.654,0.474-0.945,0.761c-0.503,0.5-0.948,1.04-1.25,1.688
		c-0.107,0.229-0.203,0.46-0.16,0.723c0.006,0.034-0.012,0.073-0.022,0.108c-0.03,0.093-0.084,0.185-0.086,0.276
		c-0.005,0.235-0.067,0.487,0.181,0.682c-0.257,0.106-0.476,0.234-0.71,0.287c-0.37,0.082-0.68,0.271-1.002,0.441
		c-0.234,0.125-0.337,0.363-0.459,0.605c0.19,0,0.35,0.01,0.506-0.004c0.393-0.032,0.789-0.023,1.17-0.16
		c0.343-0.124,0.697-0.218,1.053-0.291c0.123-0.025,0.266,0.049,0.398,0.081c0.013,0.003,0.029,0.032,0.026,0.046
		c-0.034,0.161,0.042,0.256,0.155,0.28c-0.037,0.119-0.07,0.221-0.099,0.323c-0.019,0.064-0.015,0.138-0.042,0.195
		c-0.147,0.31-0.305,0.614-0.448,0.924c-0.053,0.113-0.112,0.125-0.214,0.071c-0.101-0.054-0.206-0.106-0.316-0.142
		c-0.603-0.191-1.219-0.234-1.845-0.151c-0.092,0.013-0.182,0.042-0.272,0.064c-0.003,0.015-0.005,0.029-0.008,0.044
		c0.095,0.061,0.189,0.12,0.309,0.196c-0.057,0.011-0.081,0.014-0.104,0.017c-0.694,0.145-1.326,0.412-1.84,0.914
		c-0.832,0.813-1.217,1.794-1.008,2.951c0.205,1.14,0.852,1.965,1.9,2.466c0.642,0.307,1.323,0.363,2.022,0.293
		c1.543-0.155,2.831-1.449,2.97-2.991c0.01-0.111,0.019-0.224,0.028-0.351c0.049,0.027,0.076,0.047,0.105,0.06
		c0.034,0.014,0.07,0.023,0.119,0.039c0.003-0.064,0.008-0.112,0.008-0.159c-0.008-0.787-0.211-1.515-0.676-2.16
		c-0.104-0.147-0.145-0.3-0.033-0.471c0.084-0.128,0.148-0.271,0.222-0.406c0.019-0.033,0.048-0.063,0.084-0.109
		c0.099,0.162,0.191,0.305,0.275,0.45c0.244,0.426,0.532,0.778,1.103,0.663c0.005-0.001,0.01,0,0.015,0
		c0.09-0.009,0.142,0.028,0.123,0.126c-0.026,0.158,0.03,0.29,0.117,0.419c0.042,0.062,0.093,0.144,0.084,0.208
		c-0.045,0.301,0.083,0.547,0.225,0.788c0.083,0.142,0.175,0.278,0.26,0.419c0.105,0.171,0.175,0.353,0.142,0.563
		c-0.021,0.129,0.037,0.222,0.158,0.277c0.207,0.094,0.409,0.199,0.618,0.284c0.119,0.048,0.25,0.089,0.376,0.088
		c0.506-0.003,1.013-0.026,1.52-0.039c0.501-0.014,1.005-0.058,1.503-0.028c0.734,0.046,1.468,0.145,2.2,0.219
		c0.108,0.01,0.172,0.056,0.213,0.16c0.23,0.593,0.608,1.068,1.134,1.427c0.386,0.263,0.821,0.39,1.268,0.464
		c1.39,0.232,2.735-0.405,3.361-1.729c0.276-0.585,0.348-1.207,0.231-1.836c-0.122-0.646-0.426-1.207-0.933-1.644
		c-0.154-0.133-0.314-0.261-0.492-0.408c0.129-0.023,0.241-0.037,0.349-0.065c0.114-0.032,0.223-0.088,0.337-0.119
		c0.328-0.082,0.388-0.158,0.396-0.501c0.005-0.179-0.048-0.365,0.077-0.529c0.021-0.027,0.001-0.085-0.001-0.127
		c-0.006-0.056-0.013-0.112-0.021-0.198c0.204,0.104,0.125-0.103,0.197-0.154c0.077,0.083,0.148,0.16,0.219,0.24
		c0.214,0.246,0.478,0.456,0.605,0.769c0.097,0.239,0.319,0.235,0.516,0.294c-0.019-0.082-0.049-0.153-0.084-0.219
		c-0.061-0.11-0.119-0.222-0.188-0.327c-0.256-0.4-0.516-0.798-0.774-1.197c-0.013-0.02-0.018-0.044-0.021-0.067
		c-0.017-0.152,0.059-0.229,0.259-0.25c0.081-0.01,0.151-0.007,0.156-0.12c0.006-0.117-0.067-0.164-0.155-0.172
		c-0.2-0.017-0.4-0.017-0.601-0.02c-0.057,0-0.114,0.013-0.172,0.02c-0.094,0.011-0.146-0.022-0.155-0.123
		c-0.013-0.148-0.033-0.296-0.051-0.445c-0.013-0.104,0.031-0.174,0.127-0.218c0.067-0.032,0.13-0.073,0.203-0.113
		c-0.029-0.037-0.042-0.057-0.06-0.073c-0.156-0.148-0.338-0.162-0.54-0.118c-0.029,0.007-0.068-0.025-0.104-0.039
		c0.025-0.033,0.044-0.076,0.077-0.097c0.029-0.019,0.074-0.017,0.112-0.017c0.187-0.004,0.375-0.004,0.563-0.007
		c0.087-0.002,0.191,0.025,0.205-0.116c0.002-0.017,0.054-0.04,0.083-0.041c0.153-0.002,0.307,0.001,0.46,0.002
		c0.042,0,0.085,0.001,0.125-0.008c0.09-0.021,0.179-0.061,0.271-0.072c0.197-0.025,0.305-0.107,0.337-0.298
		c0.034-0.21,0.033-0.42,0.077-0.633C31.988,17.008,31.943,16.679,31.931,16.361z M15.121,20.665
		c0.006-0.014,0.026-0.021,0.057-0.044c0.11,0.556-0.294,0.87-0.499,1.27c-0.021,0-0.041,0-0.063,0
		c-0.014-0.046-0.054-0.104-0.037-0.138C14.754,21.388,14.937,21.028,15.121,20.665z M13.549,23.691
		c0.091-0.123,0.145-0.271,0.214-0.41c0.102-0.2,0.239-0.219,0.384-0.046c0.066,0.08,0.124,0.165,0.186,0.249
		c-0.125,0.187-0.15,0.42-0.394,0.476c-0.042,0.011-0.08,0.039-0.122,0.043c-0.074,0.009-0.186,0.037-0.217,0.001
		C13.53,23.922,13.45,23.825,13.549,23.691z M14.658,25.598c-0.263,0.799-0.819,1.301-1.616,1.537
		c-0.94,0.277-1.785,0.072-2.494-0.588c-0.561-0.521-0.796-1.194-0.712-1.966c0.138-1.255,1.207-2.16,2.454-2.134
		c0.228,0.005,0.458,0.046,0.685,0.087c0.17,0.029,0.186,0.069,0.128,0.228c-0.059,0.158-0.129,0.313-0.189,0.47
		c-0.04,0.112-0.103,0.15-0.231,0.13c-0.435-0.072-0.86-0.021-1.204,0.271c-0.564,0.479-0.87,1.12-0.585,1.905
		c0.178,0.485,0.805,0.893,1.375,0.866c0.354-0.017,0.684-0.117,0.963-0.344c0.067-0.054,0.134-0.116,0.177-0.188
		c0.065-0.108,0.137-0.185,0.297-0.134c-0.028-0.201,0.105-0.166,0.178-0.169c0.039-0.076,0.073-0.133,0.096-0.191
		c0.032-0.087,0.059-0.175,0.08-0.265c0.054-0.224,0.101-0.45,0.158-0.674c0.019-0.072,0.38-0.24,0.435-0.201
		c0.038,0.026,0.06,0.085,0.072,0.133C14.829,24.787,14.789,25.198,14.658,25.598z M15.051,22.279
		c-0.064-0.084-0.159-0.159-0.145-0.191c0.051-0.122,0.162-0.188,0.34-0.205C15.18,22.016,15.125,22.13,15.051,22.279z
		 M15.411,21.479c-0.172,0.162-0.348,0.319-0.527,0.473c-0.033,0.027-0.09,0.024-0.136,0.035c0.011-0.04,0.012-0.087,0.033-0.12
		c0.141-0.225,0.285-0.446,0.43-0.668c0.023-0.033,0.051-0.064,0.101-0.125c0.055,0.116,0.102,0.195,0.128,0.281
		C15.451,21.39,15.438,21.454,15.411,21.479z M17.406,17.45c-0.061-0.049-0.116-0.103-0.183-0.143
		c-0.088-0.055-0.143-0.016-0.149,0.125c-0.07-0.097-0.115-0.156-0.158-0.215c0.006-0.02,0.012-0.038,0.017-0.057
		c0.058,0.007,0.115,0.013,0.17,0.022c0.033,0.004,0.064,0.021,0.097,0.021C17.406,17.202,17.431,17.23,17.406,17.45z
		 M18.067,22.327c-0.125,0.006-0.124,0.062-0.091,0.161c0.012,0.037-0.042,0.095-0.066,0.144c-0.017-0.008-0.034-0.016-0.053-0.024
		c0.025-0.104,0.046-0.211,0.081-0.313c0.011-0.033,0.057-0.063,0.094-0.074c0.022-0.007,0.058,0.025,0.086,0.039
		C18.1,22.283,18.084,22.325,18.067,22.327z M19.667,22.333c-0.015-0.004-0.027-0.007-0.042-0.009
		c-0.08-0.213-0.047-0.33,0.128-0.386C19.722,22.077,19.697,22.205,19.667,22.333z M23.341,23.418
		c0.07-0.103,0.176-0.115,0.29-0.108c0.007,0.015,0.015,0.031,0.021,0.047c-0.094,0.042-0.188,0.083-0.281,0.125
		C23.36,23.46,23.351,23.44,23.341,23.418z M23.412,24.809c0.056,0.012,0.106,0.019,0.154,0.034c0.22,0.068,0.441,0.135,0.657,0.213
		c0.048,0.017,0.078,0.079,0.116,0.12c-0.049,0.018-0.099,0.05-0.146,0.048c-0.168-0.005-0.336-0.021-0.505-0.036
		C23.558,25.175,23.459,25.042,23.412,24.809z M23.906,25.732c-0.066-0.014-0.128-0.055-0.191-0.083
		c0.065-0.028,0.128-0.065,0.196-0.083c0.102-0.026,0.209-0.033,0.311-0.06c0.111-0.026,0.163,0.004,0.16,0.124
		c-0.001,0.05,0.017,0.102,0.03,0.183C24.231,25.784,24.068,25.764,23.906,25.732z M26.714,23.932
		c0.006,0.018,0.012,0.034,0.017,0.05c-0.089,0.065-0.175,0.13-0.291,0.215c-0.034-0.105-0.062-0.189-0.104-0.318
		C26.496,23.901,26.606,23.917,26.714,23.932z M24.639,22.607c0.162-0.238,0.337-0.469,0.511-0.699
		c0.021-0.026,0.073-0.031,0.119-0.051c0.031,0.159,0.063,0.299,0.082,0.439c0.002,0.026-0.051,0.064-0.083,0.09
		c-0.069,0.055-0.139,0.107-0.211,0.155c-0.111,0.072-0.218,0.159-0.34,0.199C24.626,22.771,24.604,22.657,24.639,22.607z
		 M25.398,22.529c-0.119,0.084-0.242,0.161-0.363,0.24c-0.011-0.017-0.02-0.031-0.03-0.048c0.105-0.097,0.124-0.284,0.316-0.29
		c0.026,0,0.062,0.005,0.073,0.021C25.407,22.47,25.41,22.521,25.398,22.529z M25.726,25.256c0.142,0.021,0.283,0.054,0.425,0.078
		c0.13,0.021,0.147,0.098,0.105,0.229c-0.196-0.051-0.391-0.098-0.581-0.155c-0.026-0.008-0.036-0.07-0.055-0.106
		C25.656,25.284,25.694,25.251,25.726,25.256z M28.82,26.27c-0.542,0.609-1.672,0.977-2.594,0.295
		c-0.277-0.205-0.469-0.482-0.58-0.812c-0.02-0.056,0.002-0.13,0.024-0.188c0.004-0.014,0.094-0.002,0.142,0.011
		c0.075,0.018,0.146,0.05,0.222,0.066c0.206,0.046,0.349,0.146,0.46,0.346c0.227,0.407,0.843,0.607,1.328,0.485
		c0.456-0.113,0.772-0.387,0.943-0.817c0.229-0.573-0.051-1.364-0.78-1.587c-0.252-0.076-0.48-0.236-0.759-0.215
		c-0.019,0.001-0.036-0.023-0.054-0.035c0.002-0.011,0.005-0.021,0.008-0.032c0.074,0,0.149-0.001,0.224,0
		c0.231,0.007,0.467,0.09,0.687-0.065c0.035-0.027,0.111,0.001,0.167,0.007c0.051,0.005,0.103,0.015,0.154,0.022
		c0.004-0.016,0.006-0.031,0.01-0.048c-0.493-0.095-0.986-0.189-1.479-0.285c-0.001-0.017-0.002-0.033-0.002-0.05
		c0.048-0.019,0.096-0.044,0.146-0.056c0.739-0.168,1.518,0.156,1.89,0.731C29.501,24.855,29.255,25.782,28.82,26.27z
		 M29.252,18.665c-0.188,0.006-0.375,0.003-0.563,0.003c0-0.025-0.004-0.051-0.006-0.077c0.189-0.02,0.38-0.041,0.57-0.056
		c0.016-0.001,0.051,0.04,0.049,0.056C29.298,18.619,29.269,18.665,29.252,18.665z"/>
</g>
</svg>
