<?xml version="1.0" encoding="utf-8"?>
<!-- Generator: Adobe Illustrator 16.0.0, SVG Export Plug-In . SVG Version: 6.00 Build 0)  -->
<!DOCTYPE svg PUBLIC "-//W3C//DTD SVG 1.1//EN" "http://www.w3.org/Graphics/SVG/1.1/DTD/svg11.dtd">
<svg version="1.1" id="Layer_1" xmlns="http://www.w3.org/2000/svg" xmlns:xlink="http://www.w3.org/1999/xlink" x="0px" y="0px"
	 width="41.014px" height="41.014px" viewBox="0 0 41.014 41.014" enable-background="new 0 0 41.014 41.014" xml:space="preserve">
<g>
	<path fill="#6D6E70" d="M14.141,21.969c-1.434,0-2.597,1.162-2.597,2.597c0,1.434,1.163,2.597,2.597,2.597
		c1.433,0,2.596-1.163,2.596-2.597C16.737,23.131,15.573,21.969,14.141,21.969z M14.078,25.998c-0.791,0-1.432-0.642-1.432-1.433
		c0-0.792,0.642-1.432,1.432-1.432c0.79,0,1.432,0.64,1.432,1.432C15.51,25.357,14.868,25.998,14.078,25.998z"/>
	<path fill="#6D6E70" d="M26.529,21.969c-1.434,0-2.596,1.162-2.596,2.597c0,1.434,1.162,2.597,2.596,2.597
		c1.435,0,2.598-1.163,2.598-2.597C29.126,23.131,27.963,21.969,26.529,21.969z M26.466,25.998c-0.79,0-1.432-0.642-1.432-1.433
		c0-0.792,0.642-1.432,1.432-1.432c0.791,0,1.433,0.64,1.433,1.432C27.899,25.357,27.257,25.998,26.466,25.998z"/>
	<path fill="#6D6E70" d="M30.857,19.667h-0.221l-1.141-2.955h-1.247l-2.331-1.503h-7.483v1.503h-2.531l-1.723,2.39l-3.953,0.565
		L8.5,21.465l1.127,2.177H8.758v0.648h1.205l0.265,0.509h0.737c-0.006-0.077-0.012-0.155-0.012-0.233
		c0-1.76,1.427-3.188,3.188-3.188c1.759,0,3.187,1.429,3.187,3.188c0,0.078-0.006,0.156-0.012,0.233h6.038
		c-0.007-0.077-0.013-0.155-0.013-0.233c0-1.76,1.428-3.188,3.188-3.188c1.762,0,3.189,1.429,3.189,3.188
		c0,0.078-0.006,0.156-0.012,0.233h1.15l1.142-3.334L30.857,19.667z M19.799,19.493h-4.802l1.507-2.179h3.518L19.799,19.493z
		 M24.386,19.493h-3.939l0.224-2.179h5.548L24.386,19.493z"/>
</g>
</svg>
