<?xml version="1.0" encoding="utf-8"?>
<!-- Generator: Adobe Illustrator 16.0.0, SVG Export Plug-In . SVG Version: 6.00 Build 0)  -->
<!DOCTYPE svg PUBLIC "-//W3C//DTD SVG 1.1//EN" "http://www.w3.org/Graphics/SVG/1.1/DTD/svg11.dtd">
<svg version="1.1" id="Layer_1" xmlns="http://www.w3.org/2000/svg" xmlns:xlink="http://www.w3.org/1999/xlink" x="0px" y="0px"
	 width="41.014px" height="41.014px" viewBox="0 0 41.014 41.014" enable-background="new 0 0 41.014 41.014" xml:space="preserve">
<g>
	<path fill="#6D6E70" d="M15.417,25.411l-0.507-0.229v-3.641H7.26v0.614h0.231L6.999,24.1H6.768l0.108,0.892l2.402,2.196h1.788
		c0.043,0.768,0.675,1.381,1.455,1.381c0.781,0,1.413-0.613,1.456-1.381h0.933v0.245h0.732c0.148,0.649,0.728,1.136,1.423,1.136
		c0.696,0,1.275-0.486,1.425-1.136h5.679v-0.887h0.615c-0.071,0.172-0.111,0.36-0.111,0.56c0,0.808,0.655,1.463,1.463,1.463
		c0.809,0,1.464-0.655,1.464-1.463c0-0.199-0.04-0.388-0.112-0.56h0.379c-0.072,0.172-0.112,0.36-0.112,0.56
		c0,0.808,0.655,1.463,1.464,1.463c0.808,0,1.463-0.655,1.463-1.463c0-0.199-0.041-0.388-0.111-0.56h1.158v-1.135H15.417z
		 M11.611,23.445L7.395,24.1l0.437-1.943h3.779V23.445z M12.522,27.939c-0.46,0-0.834-0.372-0.834-0.833
		c0-0.462,0.374-0.834,0.834-0.834c0.46,0,0.833,0.372,0.833,0.834C13.356,27.567,12.982,27.939,12.522,27.939z M14.26,23.445h-1.81
		v-1.288h1.81V23.445z M17.067,27.939c-0.461,0-0.834-0.372-0.834-0.833c0-0.462,0.374-0.834,0.834-0.834
		c0.46,0,0.833,0.372,0.833,0.834C17.9,27.567,17.527,27.939,17.067,27.939z M26.136,27.939c-0.459,0-0.833-0.372-0.833-0.833
		c0-0.462,0.374-0.834,0.833-0.834c0.46,0,0.834,0.372,0.834,0.834C26.97,27.567,26.596,27.939,26.136,27.939z M29.218,27.939
		c-0.461,0-0.834-0.372-0.834-0.833c0-0.462,0.373-0.834,0.834-0.834c0.46,0,0.833,0.372,0.833,0.834
		C30.051,27.567,29.678,27.939,29.218,27.939z"/>
	<rect x="17.092" y="22.905" fill="#6D6E70" width="14.636" height="2.92"/>
	
		<rect x="18.094" y="20.552" transform="matrix(-0.9401 -0.341 0.341 -0.9401 44.3768 51.8241)" fill="#6D6E70" width="17.296" height="2.921"/>
	
		<rect x="15.615" y="17.516" transform="matrix(-0.94 -0.3413 0.3413 -0.94 28.2613 42.4855)" fill="#6D6E70" width="4.504" height="2.483"/>
	
		<rect x="12.64" y="15.999" transform="matrix(-0.9398 -0.3417 0.3417 -0.9398 21.6562 38.7357)" fill="#6D6E70" width="3.201" height="2.923"/>
	
		<rect x="8.121" y="14.952" transform="matrix(-0.9401 -0.341 0.341 -0.9401 15.5223 35.1155)" fill="#6D6E70" width="5.453" height="2.483"/>
</g>
</svg>
