<?xml version="1.0" encoding="utf-8"?>
<!-- Generator: Adobe Illustrator 16.0.0, SVG Export Plug-In . SVG Version: 6.00 Build 0)  -->
<!DOCTYPE svg PUBLIC "-//W3C//DTD SVG 1.1//EN" "http://www.w3.org/Graphics/SVG/1.1/DTD/svg11.dtd">
<svg version="1.1" id="Layer_1" xmlns="http://www.w3.org/2000/svg" xmlns:xlink="http://www.w3.org/1999/xlink" x="0px" y="0px"
	 width="41.014px" height="41.014px" viewBox="0 0 41.014 41.014" enable-background="new 0 0 41.014 41.014" xml:space="preserve">
<g>
	<polygon fill="#6D6E70" points="29.527,29.391 29.527,22.973 28.448,22.973 28.448,29.391 12.29,29.391 12.29,22.973 
		11.213,22.973 11.213,29.391 11.213,29.391 11.213,30.469 12.29,30.469 28.448,30.469 29.527,30.469 29.604,30.469 29.604,29.391 	
		"/>
	<polygon fill="#6D6E70" points="25.021,28.865 15.795,28.865 13.006,19.882 27.811,19.882 	"/>
	<rect x="19.553" y="12.148" fill="#6D6E70" width="1.71" height="2.62"/>
	<g>
		<path fill="#6D6E70" d="M24.859,19.472l-0.487-1.567h-0.88v-1.133h0.528l-0.839-2.699h-5.546l-0.838,2.699h0.528v1.133h-0.88
			l-0.486,1.567H24.859z M22.032,16.772h1.132v1.133h-1.132V16.772z M20.573,16.772h1.129v1.133h-1.129V16.772z M19.112,16.772
			h1.132v1.133h-1.132V16.772z M17.653,16.772h1.131v1.133h-1.131V16.772z"/>
		<polygon fill="#6D6E70" points="16.193,16.772 16.193,17.905 16.445,17.905 16.797,16.772 		"/>
		<polygon fill="#6D6E70" points="24.623,17.905 24.623,16.772 24.02,16.772 24.371,17.905 		"/>
	</g>
</g>
</svg>
