<?xml version="1.0" encoding="utf-8"?>
<!-- Generator: Adobe Illustrator 16.0.0, SVG Export Plug-In . SVG Version: 6.00 Build 0)  -->
<!DOCTYPE svg PUBLIC "-//W3C//DTD SVG 1.1//EN" "http://www.w3.org/Graphics/SVG/1.1/DTD/svg11.dtd">
<svg version="1.1" id="Layer_1" xmlns="http://www.w3.org/2000/svg" xmlns:xlink="http://www.w3.org/1999/xlink" x="0px" y="0px"
	 width="41.014px" height="41.014px" viewBox="0 0 41.014 41.014" enable-background="new 0 0 41.014 41.014" xml:space="preserve">
<g>
	<path fill="#6D6E70" d="M23.142,27.595c0,1.319-1.068,2.388-2.387,2.388l0,0c-1.319,0-2.389-1.068-2.389-2.388V16.308
		c0-1.318,1.069-2.389,2.389-2.389l0,0c1.319,0,2.387,1.07,2.387,2.389V27.595z"/>
	<path fill="#6D6E70" d="M29.066,27.595c0,1.319-1.068,2.388-2.388,2.388l0,0c-1.318,0-2.388-1.068-2.388-2.388v-6.942
		c0-1.318,1.069-2.388,2.388-2.388l0,0c1.319,0,2.388,1.069,2.388,2.388V27.595z"/>
	<rect x="22.002" y="27.323" fill="#6D6E70" width="3.311" height="0.435"/>
	<rect x="22.002" y="21.082" fill="#6D6E70" width="3.311" height="0.436"/>
	<path fill="#6D6E70" d="M16.901,27.595c0,1.319-1.069,2.388-2.387,2.388l0,0c-1.318,0-2.388-1.068-2.388-2.388V16.308
		c0-1.318,1.07-2.389,2.388-2.389l0,0c1.318,0,2.387,1.07,2.387,2.389V27.595z"/>
	<rect x="15.761" y="27.323" fill="#6D6E70" width="3.311" height="0.435"/>
	<rect x="15.761" y="17.261" fill="#6D6E70" width="3.311" height="0.435"/>
	<rect x="13.582" y="12.074" fill="#6D6E70" width="8.149" height="0.434"/>
	<rect x="25.747" y="17.479" fill="#6D6E70" width="1.953" height="1.573"/>
	<rect x="13.582" y="13.245" fill="#6D6E70" width="1.954" height="1.574"/>
	<rect x="19.777" y="13.245" fill="#6D6E70" width="1.955" height="1.574"/>
</g>
</svg>
