<?xml version="1.0" encoding="utf-8"?>
<!-- Generator: Adobe Illustrator 16.0.0, SVG Export Plug-In . SVG Version: 6.00 Build 0)  -->
<!DOCTYPE svg PUBLIC "-//W3C//DTD SVG 1.1//EN" "http://www.w3.org/Graphics/SVG/1.1/DTD/svg11.dtd">
<svg version="1.1" id="Layer_1" xmlns="http://www.w3.org/2000/svg" xmlns:xlink="http://www.w3.org/1999/xlink" x="0px" y="0px"
	 width="41.014px" height="41.014px" viewBox="0 0 41.014 41.014" enable-background="new 0 0 41.014 41.014" xml:space="preserve">
<g>
	<g>
		<path fill="#6D6E70" d="M20.782,29.745l-0.112-0.008c-6.076-0.45-7.781-10.676-7.956-11.841l-0.297-1.983l1.991,0.242
			c0.092,0.012,0.183,0.017,0.275,0.017c1.875,0,4.309-2.034,5.014-2.747l1.083-1.097l1.084,1.097
			c0.709,0.713,3.15,2.747,5.016,2.747c0.092,0,0.182-0.005,0.273-0.017l1.992-0.242l-0.297,1.983
			c-0.174,1.165-1.881,11.391-7.956,11.841L20.782,29.745z M13.139,16.615l0.179,1.19c0.168,1.115,1.795,10.907,7.397,11.323
			l0.067,0.006l0.068-0.006c5.602-0.416,7.229-10.208,7.397-11.323l0.179-1.19l-1.194,0.146c-2.164,0.266-4.942-2.047-5.798-2.906
			l-0.652-0.659l-0.65,0.657c-0.852,0.861-3.619,3.181-5.797,2.908L13.139,16.615z"/>
	</g>
	<path fill="#6D6E70" d="M26.157,17.633c-0.402,1.738-1.41,4.427-2.002,5.943c-0.135,0.425-0.287,0.813-0.457,1.143
		c0,0,0.186-0.451,0.457-1.143c0.614-1.943,0.87-4.651,0.97-6.219c-2.308-0.823-4.325-2.859-4.325-2.859s-3.509,3.546-6.561,3.172
		c0,0,1.525,10.173,6.561,10.545c5.035-0.372,6.559-10.545,6.559-10.545C26.964,17.719,26.561,17.699,26.157,17.633z"/>
</g>
</svg>
